<?xml version="1.0" encoding="utf-8"?>
<!-- Generator: Adobe Illustrator 25.4.1, SVG Export Plug-In . SVG Version: 6.00 Build 0)  -->
<svg version="1.1" id="Layer_1" xmlns="http://www.w3.org/2000/svg" xmlns:xlink="http://www.w3.org/1999/xlink" x="0px" y="0px"
	 viewBox="0 0 128 128" style="enable-background:new 0 0 128 128;" xml:space="preserve">
<style type="text/css">
	.st0{display:none;fill:#00745C;}
	.st1{display:none;}
	.st2{font-family:'Flux';}
	.st3{font-size:36.7637px;}
	.st4{fill:#FFFFFF;}
	.st5{font-family:'BIZUDPGothic-Bold';}
	.st6{font-size:17.109px;}
</style>
<path class="st0" d="M22.8,40.1h6v27.4c-3,0.6-5.3,0.8-7.7,0.8c-7.2,0-11-3.3-11-9.5c0-6,4-10,10.2-10c1,0,1.7,0.1,2.6,0.3v-9
	L22.8,40.1z M22.8,53.9c-0.7-0.2-1.3-0.3-2-0.3c-3,0-4.7,1.8-4.7,5.1c0,3.2,1.7,4.9,4.7,4.9c0.7,0,1.2,0,2-0.2V53.9z M38.2,49.3V63
	c0,4.7-0.3,7-1.4,9c-1,1.9-2.2,3.1-4.8,4.4l-5.5-2.6c2.6-1.2,3.9-2.3,4.7-4c0.8-1.7,1.1-3.7,1.1-8.8V49.3H38.2z M32.3,40.2h5.9v6.1
	h-5.9V40.2z M41.8,50.6c2.6-1.2,5.1-1.8,7.8-1.8c3,0,5,0.8,5.9,2.4c0.5,0.9,0.7,2,0.7,4.5v12c-2.7,0.4-6,0.7-8.5,0.7
	c-5,0-7.2-1.7-7.2-5.6c0-4.2,3-6.1,10.2-6.7v-1.3c0-1.1-0.5-1.5-2-1.5c-2.2,0-4.7,0.6-7,1.8L41.8,50.6L41.8,50.6z M51,60
	c-3.9,0.4-5.2,1-5.2,2.5c0,1.2,0.7,1.7,2.3,1.7c0.9,0,1.7-0.1,2.8-0.3V60L51,60z M59.1,50.2c3.5-0.9,6.4-1.3,9.3-1.3
	c3,0,5.2,0.7,6.5,2c1.2,1.3,1.6,2.7,1.6,5.6v11.6h-5.9V56.7c0-2.3-0.8-3.1-2.9-3.1c-0.8,0-1.5,0.1-2.7,0.4v14.1h-5.9V50.2z
	 M78.8,71.3c2.1,1.1,4.2,1.6,6.3,1.6c3.9,0,5.5-1.6,5.5-5.3v-0.1c-1.2,0.6-2.3,0.8-3.8,0.8c-5.2,0-8.5-3.4-8.5-8.8
	c0-6.7,4.9-10.5,13.5-10.5c2.5,0,4.9,0.3,7.7,0.8l-2,4.3c-1.6-0.3-0.1,0-1.3-0.2v0.6l0.1,2.5v3.2c0,0.8,0,1.6,0.1,2.4v1.6
	c0,5.1-0.4,7.5-1.7,9.4c-1.8,2.9-5,4.3-9.6,4.3c-2.3,0-4.3-0.3-6.4-1.2v-5.4H78.8z M90.6,53.7H90c-1.2,0-2.5,0.3-3.4,0.8
	c-1.4,0.8-2.2,2.3-2.2,4.3c0,3,1.5,4.7,4.1,4.7c0.8,0,1.5-0.2,2.2-0.4L90.6,53.7L90.6,53.7z M108.8,48.8c5.9,0,9.5,3.7,9.5,9.8
	c0,6.2-3.8,10.1-9.8,10.1c-5.9,0-9.6-3.7-9.6-9.7C99,52.7,102.8,48.8,108.8,48.8z M108.7,63.8c2.3,0,3.6-1.9,3.6-5.2
	c0-3.2-1.3-5.2-3.6-5.2s-3.7,1.9-3.7,5.2C105.1,62,106.4,63.8,108.7,63.8z"/>
<text transform="matrix(1 0 0 1 13.1957 37.9468)" class="st1 st2 st3">python</text>
<text transform="matrix(0.8994 0 0 1 16.7373 57.2643)" class="st4 st5 st6">Redis</text>
</svg>
